STARTFONT 2.1
FONT HAN-GB2312
SIZE 20 72 72
FONTBOUNDINGBOX 12 20 0 0
STARTPROPERTIES 1
BITCOUNT 8
ENDPROPERTIES
CHARS 22
STARTCHAR  00A7
ENCODING  167
SWIDTH  1000 0
DWIDTH  9 0
BBX  9 18 0 -4
BITMAP
000010A0F0E0800000
0000C0801020E06000
0010FF00000040E000
0000F0200000106000
000060E03000000000
0030C0A0F080000000
00E0300030E0E03000
10F00000000080F040
00F0600000000060E0
0040F08000000020E0
000030E0C0200060A0
00000010A0F0A0C010
000000000040F04000
00106000000060E000
0010FF10000040FF00
0000C0A01010A0C000
000010C0FFF0C02000
000000001010000000
ENDCHAR
STARTCHAR  00A8
ENCODING  168
SWIDTH  1000 0
DWIDTH  8 0
BBX  7 4 1 10
BITMAP
C0E02020E0C000
E0FF4030FFE010
20406000402060
00302000004010
ENDCHAR
STARTCHAR  00B1
ENCODING  177
SWIDTH  1000 0
DWIDTH  9 0
BBX  9 10 0 1
BITMAP
000000004000000000
00000000E000000000
00000000E000000000
00000000E000000000
00E0E0E0FFE0E0E010
00000000E000000000
00000000E000000000
00000000E000000000
000000000000000000
20C0C0C0C0C0C0C000
ENDCHAR
STARTCHAR  00B7
ENCODING  183
SWIDTH  1000 0
DWIDTH  9 0
BBX  8 8 1 2
BITMAP
0080E0FFC0300000
80FFFFFFFFE01000
E0FFFFFFFFFF6000
FFFFFFFFFFFF6010
C0FFFFFFFFFF3060
30F0FFFFFFA04080
002080804060E020
00002060A0802000
ENDCHAR
STARTCHAR  00E0
ENCODING  224
SWIDTH  1000 0
DWIDTH  21 0
BBX  20 20 1 0
BITMAP
000000000030F0FFF04020000000000000000000
00000000000040FFFFC060100000000000000000
0000000000000060FFFF80600000000000000000
000000000000000080FFF0404000000000000000
0000000000000000008080606020000000000000
0000000000000000001040606060000000000000
00000000000000E0FFFFC0400000000000000000
00000000000060FFFFFFFF406000000000000000
000000000000E0FFFFFFFFA03040000000000000
000000000060FFFFC0FFFFFF3060000000000000
0000000000E0FFC060FFFFFFA030300000000000
0000000040FFFF6020E0FFFFFF20600000000000
00000000C0FFFFE0E0F0FFFFFFA0402000000000
00000030FFFFFFFFFFFFFFFFFFFF206000000000
000000A0FFF01000000080FFFFFF804010000000
000020FFFFA02040404040F0FFFFF01040000000
FFFFFFFFFFFFFFFF40FFFFFFFFFFFFFFFFFFA010
FFFFFFFFFFFFFFFFC0FFFFFFFFFFFFFFFFFFA040
6030303030303030606040404040404040402040
1060606060606060604060606060606060606060
ENDCHAR
STARTCHAR  00E1
ENCODING  225
SWIDTH  1000 0
DWIDTH  21 0
BBX  20 20 1 0
BITMAP
0000000000000000E0FFFF804000000000000000
0000000000000080FFFFA0108000000000000000
00000000000020F0FFC010601000000000000000
000000000000C0FFE01060100000000000000000
0000000000208080204010000000000000000000
0000000000104040401000000000000000000000
00000000000000E0FFFFC0400000000000000000
00000000000060FFFFFFFF406000000000000000
000000000000E0FFFFFFFFA03040000000000000
000000000060FFFFC0FFFFFF3060000000000000
0000000000E0FFC060FFFFFFA030300000000000
0000000040FFFF6020E0FFFFFF20600000000000
00000000C0FFFFE0E0F0FFFFFFA0402000000000
00000030FFFFFFFFFFFFFFFFFFFF206000000000
000000A0FFF01000000080FFFFFF804010000000
000020FFFFA02040404040F0FFFFF01040000000
FFFFFFFFFFFFFFFF40FFFFFFFFFFFFFFFFFFA010
FFFFFFFFFFFFFFFFC0FFFFFFFFFFFFFFFFFFA040
6030303030303030606040404040404040402040
1060606060606060604060606060606060606060
ENDCHAR
STARTCHAR  00E8
ENCODING  232
SWIDTH  1000 0
DWIDTH  16 0
BBX  16 20 0 0
BITMAP
00000060FFFFF0402000000000000000
0000000080FFFFC06010000000000000
0000000000A0FFFF8080000000000000
000000000000A0FFFF40600000000000
0000000000000080A060403000000000
00000000000000004060606000000000
80FFFFFFFFFFFFFFFFFFFFFFFFFFA020
80FFFFFFFFFFFFFFFFFFFFFFFFFF6060
304030FFFFFFC030303030A0FFFF6060
008040FFFFFFA06060606020FFFF6060
000000FFFFFFE0A080400000A0A04060
000000FFFFFFFFFFFFA0600040606060
000000FFFFFFFFFFFFA0600000000000
000000FFFFFFA00000006000A0A06000
000000FFFFFFA06060606000FFFFA060
000000FFFFFFA06000001080FFFF8060
80FFFFFFFFFFFFFFFFFFFFFFFFFF8060
80FFFFFFFFFFFFFFFFFFFFFFFFFF8060
30604040404040404040404040402060
00606060606060606060606060606080
ENDCHAR
STARTCHAR  00E9
ENCODING  233
SWIDTH  1000 0
DWIDTH  16 0
BBX  16 20 0 0
BITMAP
00000000000080FFFFF0601000000000
000000000030FFFFF030404000000000
0000000000E0FFF03040600000000000
0000000080FFF0404040000000000000
00000010C08040404000000000000000
00000000206040400000000000000000
80FFFFFFFFFFFFFFFFFFFFFFFFFFA020
80FFFFFFFFFFFFFFFFFFFFFFFFFF6060
304030FFFFFFC030303030A0FFFF6060
008040FFFFFFA06060606020FFFF6060
000000FFFFFFE0A080400000A0A04060
000000FFFFFFFFFFFFA0600040606060
000000FFFFFFFFFFFFA0600000000000
000000FFFFFFA00000006000A0A06000
000000FFFFFFA06060606000FFFFA060
000000FFFFFFA06000001080FFFF8060
80FFFFFFFFFFFFFFFFFFFFFFFFFF8060
80FFFFFFFFFFFFFFFFFFFFFFFFFF8060
30604040404040404040404040402060
00606060606060606060606060606080
ENDCHAR
STARTCHAR  00EA
ENCODING  234
SWIDTH  1000 0
DWIDTH  16 0
BBX  16 20 0 0
BITMAP
0000000020E0FFFF6030000000000000
00000000C0FFFFFFFF80800000000000
000000A0FFFF60E0FFF0606000000000
000060FFF0406030E0FFE06030000000
00008080406030001080806080100000
00002060603000000010606060600000
80FFFFFFFFFFFFFFFFFFFFFFFFFFA020
80FFFFFFFFFFFFFFFFFFFFFFFFFF6060
304030FFFFFFC030303030A0FFFF6060
008040FFFFFFA06060606020FFFF6060
000000FFFFFFE0A080400000A0A04060
000000FFFFFFFFFFFFA0600040606060
000000FFFFFFFFFFFFA0600000000000
000000FFFFFFA00000006000A0A06000
000000FFFFFFA06060606000FFFFA060
000000FFFFFFA06000001080FFFF8060
80FFFFFFFFFFFFFFFFFFFFFFFFFF8060
80FFFFFFFFFFFFFFFFFFFFFFFFFF8060
30604040404040404040404040402060
00606060606060606060606060606080
ENDCHAR
STARTCHAR  00EC
ENCODING  236
SWIDTH  1000 0
DWIDTH  12 0
BBX  11 20 1 0
BITMAP
30F0FFFF60300000000000
0040FFFFE0603000000000
000040FFFFA08010000000
00000060FFFF6080000000
0000000060806060400000
0000000000306060800000
FFFFFFFFFFFFFFFFFF8030
FFFFFFFFFFFFFFFFFF8060
604030FFFFFFC030301060
006040FFFFFFA060606060
000000FFFFFFA060000000
000000FFFFFFA060000000
000000FFFFFFA060000000
000000FFFFFFA060000000
000000FFFFFFA060000000
000000FFFFFFA040000000
FFFFFFFFFFFFFFFFFFA010
FFFFFFFFFFFFFFFFFF8060
6040404040404040402060
2060606060606060606080
ENDCHAR
STARTCHAR  00ED
ENCODING  237
SWIDTH  1000 0
DWIDTH  12 0
BBX  11 20 1 0
BITMAP
00000060FFFFC060000000
000020F0FFE01080200000
0000C0FFF0204060000000
0080FFFF40208000000000
1080804000800000000000
0060200060100000000000
FFFFFFFFFFFFFFFFFF8030
FFFFFFFFFFFFFFFFFF8060
604030FFFFFFC030301060
006040FFFFFFA060606060
000000FFFFFFA060000000
000000FFFFFFA060000000
000000FFFFFFA060000000
000000FFFFFFA060000000
000000FFFFFFA060000000
000000FFFFFFA040000000
FFFFFFFFFFFFFFFFFFA010
FFFFFFFFFFFFFFFFFF8060
6040404040404040402060
2060606060606060606080
ENDCHAR
STARTCHAR  00F2
ENCODING  242
SWIDTH  1000 0
DWIDTH  18 0
BBX  17 21 1 -1
BITMAP
00000060FFFFE040100000000000000000
0000000080FFFFA0601000000000000000
000000000080FFFF606000000000000000
000000000000A0FFF04040000000000000
0000000000000080804060100000000000
0000000000000000406060600000000000
0000001080E0F0FFE0A040000000000000
000060F0FFFFFFFFFFFFFFC01000000000
0060FFFFE040100040A0FFFFE010000000
30FFFFF0104060404020A0FFFF80101000
A0FFFFA040400000000030FFFFF0104000
E0FFFF6060000000000010FFFFFF401030
FFFFFF6060000000000000FFFFFF600040
F0FFFF6040000000000000FFFFFF600030
C0FFFF8040000000000020FFFFFF300030
60FFFFC040000000000060FFFFE0001020
00E0FFFF800000000040E0FFFF40004000
0010C0FFFFF0E0E0FFFFFFF04000402000
00000040A0E0F0FFF0C080100040200000
0000003040200000000010406010000000
0000000000204040406040000000000000
ENDCHAR
STARTCHAR  00F3
ENCODING  243
SWIDTH  1000 0
DWIDTH  18 0
BBX  17 21 1 -1
BITMAP
00000000000080FFFFE060000000000000
000000000030F0FFE02040400000000000
0000000000E0FFF0302060000000000000
0000000080FFF040108000000000000000
0000001080804000800000000000000000
0000000060100060100000000000000000
0000001080FFFFFFE0A040000000000000
000060F0FFFFFFFFFFFFFFC01000000000
0060FFFFE040100040A0FFFFE010000000
30FFFFF0104060404020A0FFFF80101000
A0FFFFA040400000000030FFFFF0104000
E0FFFF6060000000000010FFFFFF401030
FFFFFF6060000000000000FFFFFF600040
F0FFFF6040000000000000FFFFFF600030
C0FFFF8040000000000020FFFFFF300030
60FFFFC040000000000060FFFFE0001020
00E0FFFF800000000040E0FFFF40004000
0010C0FFFFF0E0E0FFFFFFF04000402000
00000040A0E0F0FFF0C080100040200000
0000003040200000000010406010000000
0000000000204040406040000000000000
ENDCHAR
STARTCHAR  00F9
ENCODING  249
SWIDTH  1000 0
DWIDTH  20 0
BBX  19 21 1 -1
BITMAP
0000000000C0FFFFC040100000000000000000
000000000010C0FFFF80800000000000000000
00000000000010E0FFFF606000000000000000
0000000000000010E0FFE06030000000000000
000000000000000020A0C04060100000000000
00000000000000000000406060400000000000
FFFFFFFFFFFFFFFFFF10FFFFFFFFFFFFFFE020
FFFFFFFFFFFFFFFFFF10FFFFFFFFFFFFFFE060
803030FFFFFF80303000A04040FFFF30302060
108060FFFFFF60608080408060FFFF00606060
000000FFFFFF60400000000010FFFF00800000
000000FFFFFF60400000000010FFFF00800000
000000FFFFFF60400000000010FFFF00800000
000000FFFFFF60400000000010FFFF00800000
000000FFFFFF60400000000010FFFF00800000
000000E0FFFF60200000000030FFF000800000
000000A0FFFFF06020001040E0FFA000800000
00000010E0FFFFFFFFFFFFFFFFF03030400000
000000000060C0E0FFFFF0E080201080000000
00000000004060200000000020606000000000
00000000000010406060606040100000000000
ENDCHAR
STARTCHAR  00FA
ENCODING  250
SWIDTH  1000 0
DWIDTH  20 0
BBX  19 21 1 -1
BITMAP
000000000000000060FFFFF060200000000000
0000000000000020F0FFF04020600000000000
00000000000000E0FFFF403060000000000000
00000000000080FFFF40306000000000000000
000000000010C0804030600000000000000000
00000000000020604060000000000000000000
FFFFFFFFFFFFFFFFFF10FFFFFFFFFFFFFFE020
FFFFFFFFFFFFFFFFFF10FFFFFFFFFFFFFFE060
803030FFFFFF80303000A04040FFFF30302060
108060FFFFFF60608080408060FFFF00606060
000000FFFFFF60400000000010FFFF00800000
000000FFFFFF60400000000010FFFF00800000
000000FFFFFF60400000000010FFFF00800000
000000FFFFFF60400000000010FFFF00800000
000000FFFFFF60400000000010FFFF00800000
000000E0FFFF60200000000030FFF000800000
000000A0FFFFF06020001040E0FFA000800000
00000010E0FFFFFFFFFFFFFFFFF03030400000
000000000060C0E0FFFFF0E080201080000000
00000000004060200000000020606000000000
00000000000010406060606040100000000000
ENDCHAR
STARTCHAR  00FC
ENCODING  252
SWIDTH  1000 0
DWIDTH  20 0
BBX  19 19 1 -1
BITMAP
00000000000020400000402000000000000000
000000000000E0FF3030FFF000000000000000
000000000000A0E06020E0C040000000000000
00000000000000303000004020000000000000
FFFFFFFFFFFFFFFFFF10FFFFFFFFFFFFFFE020
FFFFFFFFFFFFFFFFFF10FFFFFFFFFFFFFFE060
803030FFFFFF80303000A04040FFFF30302060
108060FFFFFF60608080408060FFFF00606060
000000FFFFFF60400000000010FFFF00800000
000000FFFFFF60400000000010FFFF00800000
000000FFFFFF60400000000010FFFF00800000
000000FFFFFF60400000000010FFFF00800000
000000FFFFFF60400000000010FFFF00800000
000000E0FFFF60200000000030FFF000800000
000000A0FFFFF06020001040E0FFA000800000
00000010E0FFFFFFFFFFFFFFFFF03030400000
000000000060C0E0FFFFF0E080201080000000
00000000004060200000000020606000000000
00000000000010406060606040100000000000
ENDCHAR
STARTCHAR  2014
ENCODING  8212
SWIDTH  1000 0
DWIDTH  22 0
BBX  21 5 1 3
BITMAP
C0C0C0C0C0C0C0C0C0C0C0C0C0C0C0C0C0C0C06000
FFFFFFFFFFFFFFFFFFFFFFFFFFFFFFFFFFFFFF8060
FFFFFFFFFFFFFFFFFFFFFFFFFFFFFFFFFFFFFF6060
400000000000000000000000000000000000000060
106060606060606060606060606060606060606060
ENDCHAR
STARTCHAR  2018
ENCODING  8216
SWIDTH  1000 0
DWIDTH  6 0
BBX  5 9 1 6
BITMAP
0000300000
00C0F01000
80FF603020
E0F0004010
FFFFFF8010
FFFFFF3060
FFFFFF3060
6020200060
2040404040
ENDCHAR
STARTCHAR  2019
ENCODING  8217
SWIDTH  1000 0
DWIDTH  5 0
BBX  5 8 0 6
BITMAP
A0FFFFC030
A0FFFFA040
A0FFFFA040
1060FF8040
00A0FF2060
60FF806020
0080403000
0010200000
ENDCHAR
STARTCHAR  201C
ENCODING  8220
SWIDTH  1000 0
DWIDTH  12 0
BBX  11 9 1 6
BITMAP
0000300000000010300000
00C0E010000000C0E00000
80FF6030300080FF603020
E0F000400000E0F0006010
FFFFFF801000FFFFFF8010
FFFFFF306000FFFFFF2060
FFFFFF306000FFFFFF2060
6020200060004020200060
2040404040001040404040
ENDCHAR
STARTCHAR  201D
ENCODING  8221
SWIDTH  1000 0
DWIDTH  12 0
BBX  11 8 1 6
BITMAP
FFFFFFA03010FFFFFFA030
FFFFFFA04010FFFFFFA040
FFFFFFA04010FFFFFFA040
6060FFA040006060FFA040
0060FF4040000080FF4040
80FFA0302000A0FFA03020
6080104000006060204000
0030400000000030400000
ENDCHAR
STARTCHAR  2026
ENCODING  8230
SWIDTH  1000 0
DWIDTH  21 0
BBX  20 5 1 0
BITMAP
FFFFFF80200000FFFFFF80200000A0FFFF804000
FFFFFF80400000FFFFFF80600000A0FFFF80A010
FFFFFF80400000FFFFFF80600000A0FFFF80A010
A0A0A040400000A0A0A04060000060A0A040A010
404040406000004040404060000020604040C010
ENDCHAR
ENDFONT
